<svg width="30" height="30" viewBox="0 0 30 30" fill="none" xmlns="http://www.w3.org/2000/svg">
<path fill-rule="evenodd" clip-rule="evenodd" d="M9.33119 1.3325C10.7974 1.265 11.2649 1.25 14.9999 1.25C18.7349 1.25 19.2024 1.26625 20.6674 1.3325C22.1324 1.39875 23.1324 1.6325 24.0074 1.97125C24.9237 2.3175 25.7549 2.85875 26.4424 3.55875C27.1424 4.245 27.6824 5.075 28.0274 5.9925C28.3674 6.8675 28.5999 7.8675 28.6674 9.33C28.7349 10.7987 28.7499 11.2662 28.7499 15C28.7499 18.735 28.7337 19.2025 28.6674 20.6687C28.6012 22.1312 28.3674 23.1312 28.0274 24.0062C27.6824 24.9239 27.1415 25.7552 26.4424 26.4425C25.7549 27.1425 24.9237 27.6825 24.0074 28.0275C23.1324 28.3675 22.1324 28.6 20.6699 28.6675C19.2024 28.735 18.7349 28.75 14.9999 28.75C11.2649 28.75 10.7974 28.7337 9.33119 28.6675C7.86869 28.6012 6.86869 28.3675 5.99369 28.0275C5.07609 27.6825 4.24471 27.1416 3.55744 26.4425C2.85791 25.7558 2.31658 24.9249 1.97119 24.0075C1.63244 23.1325 1.39994 22.1325 1.33244 20.67C1.26494 19.2012 1.24994 18.7337 1.24994 15C1.24994 11.265 1.26619 10.7975 1.33244 9.3325C1.39869 7.8675 1.63244 6.8675 1.97119 5.9925C2.31709 5.0751 2.85884 4.24414 3.55869 3.5575C4.24499 2.85813 5.07553 2.3168 5.99244 1.97125C6.86744 1.6325 7.86744 1.4 9.32994 1.3325H9.33119ZM20.5562 3.8075C19.1062 3.74125 18.6712 3.7275 14.9999 3.7275C11.3287 3.7275 10.8937 3.74125 9.44369 3.8075C8.10244 3.86875 7.37494 4.0925 6.88994 4.28125C6.24869 4.53125 5.78994 4.8275 5.30869 5.30875C4.85249 5.75256 4.50141 6.29285 4.28119 6.89C4.09244 7.375 3.86869 8.1025 3.80744 9.44375C3.74119 10.8937 3.72744 11.3287 3.72744 15C3.72744 18.6712 3.74119 19.1062 3.80744 20.5562C3.86869 21.8975 4.09244 22.625 4.28119 23.11C4.50119 23.7062 4.85244 24.2475 5.30869 24.6912C5.75244 25.1475 6.29369 25.4987 6.88994 25.7187C7.37494 25.9075 8.10244 26.1312 9.44369 26.1925C10.8937 26.2587 11.3274 26.2725 14.9999 26.2725C18.6724 26.2725 19.1062 26.2587 20.5562 26.1925C21.8974 26.1312 22.6249 25.9075 23.1099 25.7187C23.7512 25.4687 24.2099 25.1725 24.6912 24.6912C25.1474 24.2475 25.4987 23.7062 25.7187 23.11C25.9074 22.625 26.1312 21.8975 26.1924 20.5562C26.2587 19.1062 26.2724 18.6712 26.2724 15C26.2724 11.3287 26.2587 10.8937 26.1924 9.44375C26.1312 8.1025 25.9074 7.375 25.7187 6.89C25.4687 6.24875 25.1724 5.79 24.6912 5.30875C24.2473 4.85259 23.7071 4.50151 23.1099 4.28125C22.6249 4.0925 21.8974 3.86875 20.5562 3.8075ZM13.2437 19.2387C14.2245 19.647 15.3167 19.7021 16.3336 19.3946C17.3505 19.0872 18.2292 18.4361 18.8194 17.5528C19.4097 16.6695 19.675 15.6086 19.57 14.5514C19.465 13.4942 18.9962 12.5062 18.2437 11.7562C17.764 11.2768 17.184 10.9098 16.5454 10.6814C15.9068 10.4531 15.2255 10.3692 14.5506 10.4358C13.8756 10.5023 13.2239 10.7177 12.6422 11.0664C12.0605 11.4151 11.5634 11.8884 11.1866 12.4523C10.8098 13.0162 10.5627 13.6566 10.4631 14.3274C10.3635 14.9983 10.4139 15.6829 10.6106 16.3319C10.8073 16.9809 11.1455 17.5783 11.6008 18.0809C12.0561 18.5835 12.6172 18.979 13.2437 19.2387ZM10.0024 10.0025C10.6587 9.34622 11.4378 8.82563 12.2953 8.47045C13.1528 8.11527 14.0718 7.93247 14.9999 7.93247C15.9281 7.93247 16.8471 8.11527 17.7046 8.47045C18.562 8.82563 19.3412 9.34622 19.9974 10.0025C20.6537 10.6588 21.1743 11.4379 21.5295 12.2954C21.8847 13.1528 22.0675 14.0719 22.0675 15C22.0675 15.9281 21.8847 16.8472 21.5295 17.7046C21.1743 18.5621 20.6537 19.3412 19.9974 19.9975C18.672 21.3229 16.8744 22.0675 14.9999 22.0675C13.1255 22.0675 11.3279 21.3229 10.0024 19.9975C8.67702 18.6721 7.93241 16.8744 7.93241 15C7.93241 13.1256 8.67702 11.3279 10.0024 10.0025ZM23.6349 8.985C23.7976 8.83159 23.9278 8.6471 24.0178 8.44247C24.1079 8.23783 24.1559 8.01721 24.1592 7.79366C24.1625 7.57011 24.1208 7.34818 24.0368 7.14101C23.9527 6.93384 23.828 6.74564 23.6699 6.58755C23.5118 6.42946 23.3236 6.3047 23.1164 6.22065C22.9093 6.1366 22.6873 6.09497 22.4638 6.09823C22.2402 6.10149 22.0196 6.14957 21.815 6.23962C21.6103 6.32967 21.4258 6.45987 21.2724 6.6225C20.9741 6.93879 20.8107 7.3589 20.8171 7.79366C20.8234 8.22842 20.9989 8.6436 21.3064 8.95105C21.6138 9.25851 22.029 9.43404 22.4638 9.44037C22.8985 9.44671 23.3187 9.28336 23.6349 8.985Z" fill="white"/>
</svg>
