<svg width="30" height="30" viewBox="0 0 30 30" fill="none" xmlns="http://www.w3.org/2000/svg">
<path fill-rule="evenodd" clip-rule="evenodd" d="M15 0C23.2706 0 30 5.46 30 12.1725C30 14.8594 28.9594 17.2781 26.7844 19.6613C23.6381 23.2838 16.6012 27.6956 15 28.3706C13.4438 29.0269 13.6237 28.0013 13.695 27.5963L13.7006 27.5625L13.9144 26.2781C13.965 25.8956 14.0175 25.3013 13.8656 24.9225C13.6969 24.5044 13.0331 24.2869 12.5456 24.1819C5.33625 23.2313 0 18.1894 0 12.1725C0 5.46 6.73125 0 15 0ZM9.41625 14.4113H6.55687V9.22125C6.55688 9.144 6.52632 9.06988 6.47187 9.01508C6.41742 8.96028 6.3435 8.92924 6.26625 8.92875H5.2125C5.17409 8.92875 5.13605 8.93632 5.10056 8.95102C5.06508 8.96571 5.03283 8.98726 5.00567 9.01442C4.97851 9.04158 4.95696 9.07383 4.94227 9.10931C4.92757 9.1448 4.92 9.18284 4.92 9.22125V15.7575C4.92 15.8344 4.95187 15.9075 5.0025 15.9581V15.96L5.00625 15.9637L5.01 15.9675C5.06438 16.0198 5.13706 16.0487 5.2125 16.0481H9.41625C9.5775 16.0481 9.70687 15.9169 9.70687 15.7556V14.7056C9.70712 14.6672 9.6998 14.6291 9.68533 14.5935C9.67086 14.558 9.64952 14.5256 9.62253 14.4982C9.59554 14.4709 9.56344 14.4492 9.52804 14.4342C9.49265 14.4193 9.45466 14.4115 9.41625 14.4113ZM10.8994 8.92875H11.9531C12.1144 8.92875 12.2438 9.06 12.2438 9.22125V15.7575C12.2438 15.9188 12.1125 16.0481 11.9531 16.0481H10.8994C10.8221 16.0481 10.748 16.0176 10.6932 15.9631C10.6384 15.9087 10.6074 15.8348 10.6069 15.7575V9.22125C10.6069 9.06 10.7381 8.92875 10.8994 8.92875ZM18.1425 8.92875H19.1925C19.3556 8.92875 19.4869 9.06 19.4869 9.22125V15.7575C19.4869 15.9188 19.3556 16.0481 19.1944 16.0481H18.1425C18.1172 16.0483 18.092 16.0451 18.0675 16.0387H18.0637C18.0568 16.0365 18.0499 16.034 18.0431 16.0312L18.0338 16.0275L18.0206 16.0219C18.0155 16.0197 18.0104 16.0172 18.0056 16.0144L18 16.0125L17.9813 16.0013L17.9794 15.9994C17.9501 15.9798 17.9247 15.955 17.9044 15.9263L14.9044 11.8763V15.7575C14.9046 15.7958 14.8973 15.8338 14.8828 15.8693C14.8683 15.9048 14.8469 15.937 14.8199 15.9642C14.7929 15.9914 14.7608 16.013 14.7254 16.0277C14.69 16.0424 14.6521 16.05 14.6138 16.05H13.5619C13.4846 16.05 13.4105 16.0194 13.3557 15.965C13.3009 15.9105 13.2699 15.8366 13.2694 15.7594V9.22125C13.2694 9.06 13.4006 8.92875 13.5619 8.92875H14.625L14.6344 8.93062H14.6456L14.6512 8.9325H14.6625L14.6812 8.93813H14.685L14.6888 8.94L14.7075 8.94563L14.7169 8.94937C14.7226 8.95156 14.7283 8.95407 14.7337 8.95687L14.7394 8.95875L14.7431 8.96062C14.7516 8.96507 14.7597 8.97008 14.7675 8.97563L14.7731 8.97937L14.7825 8.985V8.98688C14.7863 8.98688 14.7881 8.99063 14.79 8.9925C14.7952 8.99598 14.8002 8.99973 14.805 9.00375L14.8106 9.00937C14.8266 9.02411 14.8411 9.04045 14.8538 9.05812L17.85 13.1062V9.22125C17.85 9.06 17.9812 8.92875 18.1425 8.92875ZM25.2956 10.2731C25.2956 10.4344 25.1644 10.5656 25.005 10.5656H22.1438V11.6719H25.0031C25.1644 11.6719 25.2937 11.8031 25.2937 11.9625V13.0144C25.2937 13.1756 25.1625 13.3069 25.0031 13.3069H22.1438V14.4131H25.0031C25.1644 14.4131 25.2937 14.5444 25.2937 14.7037V15.7556C25.2937 15.9169 25.1625 16.0481 25.0031 16.0481H20.7994C20.7611 16.0483 20.7232 16.041 20.6878 16.0265C20.6525 16.012 20.6203 15.9907 20.5931 15.9637L20.5894 15.9581C20.537 15.9044 20.5075 15.8325 20.5069 15.7575V9.22125C20.5069 9.1425 20.5387 9.07125 20.5875 9.02063L20.5931 9.015L20.595 9.01313C20.6493 8.95917 20.7228 8.92885 20.7994 8.92875H25.0031C25.1644 8.92875 25.2937 9.06 25.2937 9.22125V10.2731H25.2956Z" fill="white"/>
</svg>
