<svg width="17" height="16" viewBox="0 0 17 16" fill="none" xmlns="http://www.w3.org/2000/svg">
<g clip-path="url(#clip0_491_7059)">
<path d="M16.2963 7.74339L13.9153 5.3624C13.73 5.17705 13.429 5.17705 13.2436 5.3624C13.0583 5.54775 13.0583 5.84874 13.2436 6.03408L14.812 7.60398H6.41275C6.14978 7.60398 5.9375 7.81626 5.9375 8.07923C5.9375 8.3422 6.14978 8.55448 6.41275 8.55448H14.8135L13.2436 10.1244C13.0583 10.3097 13.0583 10.6107 13.2436 10.7961C13.3371 10.8895 13.4575 10.9355 13.5795 10.9355C13.7015 10.9355 13.8234 10.8895 13.9153 10.7961L16.2963 8.41507C16.4817 8.22973 16.4817 7.92874 16.2963 7.74339Z" fill="#333333"/>
<path d="M16.2963 7.74339L13.9153 5.3624C13.73 5.17705 13.429 5.17705 13.2436 5.3624C13.0583 5.54775 13.0583 5.84874 13.2436 6.03408L14.812 7.60398H6.41275C6.14978 7.60398 5.9375 7.81626 5.9375 8.07923C5.9375 8.3422 6.14978 8.55448 6.41275 8.55448H14.8135L13.2436 10.1244C13.0583 10.3097 13.0583 10.6107 13.2436 10.7961C13.3371 10.8895 13.4575 10.9355 13.5795 10.9355C13.7015 10.9355 13.8234 10.8895 13.9153 10.7961L16.2963 8.41507C16.4817 8.22973 16.4817 7.92874 16.2963 7.74339Z" fill="black" fill-opacity="0.2"/>
<path d="M11.338 15.0495H4.01921C3.31901 15.0495 2.7503 14.4729 2.7503 13.7632V2.23683C2.7503 1.52871 3.31901 0.950495 4.01921 0.950495H11.338C11.601 0.950495 11.8133 0.738218 11.8133 0.475248C11.8133 0.212277 11.601 0 11.338 0H4.01921C2.79466 0 1.7998 1.00436 1.7998 2.23683V13.7616C1.7998 14.9956 2.79466 16 4.01921 16H11.338C11.601 16 11.8133 15.7877 11.8133 15.5248C11.8133 15.2618 11.5994 15.0495 11.338 15.0495Z" fill="#333333"/>
<path d="M11.338 15.0495H4.01921C3.31901 15.0495 2.7503 14.4729 2.7503 13.7632V2.23683C2.7503 1.52871 3.31901 0.950495 4.01921 0.950495H11.338C11.601 0.950495 11.8133 0.738218 11.8133 0.475248C11.8133 0.212277 11.601 0 11.338 0H4.01921C2.79466 0 1.7998 1.00436 1.7998 2.23683V13.7616C1.7998 14.9956 2.79466 16 4.01921 16H11.338C11.601 16 11.8133 15.7877 11.8133 15.5248C11.8133 15.2618 11.5994 15.0495 11.338 15.0495Z" fill="black" fill-opacity="0.2"/>
</g>
<defs>
<clipPath id="clip0_491_7059">
<rect width="16" height="16" fill="white" transform="translate(0.799805)"/>
</clipPath>
</defs>
</svg>
