<svg width="17" height="16" viewBox="0 0 17 16" fill="none" xmlns="http://www.w3.org/2000/svg">
<g clip-path="url(#clip0_491_7053)">
<path d="M9.21118 7.2544C7.21118 7.2544 5.58398 5.6272 5.58398 3.6272C5.58398 1.6272 7.21118 0 9.21118 0C11.2112 0 12.8384 1.6272 12.8384 3.6272C12.8384 5.6272 11.2112 7.2544 9.21118 7.2544ZM9.21118 0.96C7.74078 0.96 6.54398 2.1568 6.54398 3.6272C6.54398 5.0976 7.74078 6.2944 9.21118 6.2944C10.6816 6.2944 11.8784 5.0976 11.8784 3.6272C11.8784 2.1568 10.6816 0.96 9.21118 0.96Z" fill="#333333"/>
<path d="M9.21118 7.2544C7.21118 7.2544 5.58398 5.6272 5.58398 3.6272C5.58398 1.6272 7.21118 0 9.21118 0C11.2112 0 12.8384 1.6272 12.8384 3.6272C12.8384 5.6272 11.2112 7.2544 9.21118 7.2544ZM9.21118 0.96C7.74078 0.96 6.54398 2.1568 6.54398 3.6272C6.54398 5.0976 7.74078 6.2944 9.21118 6.2944C10.6816 6.2944 11.8784 5.0976 11.8784 3.6272C11.8784 2.1568 10.6816 0.96 9.21118 0.96Z" fill="black" fill-opacity="0.2"/>
<path d="M16.6206 16.0001H1.7998L1.8126 15.5073C1.9342 11.0513 5.1822 7.56006 9.2094 7.56006C13.2366 7.56006 16.4862 11.0513 16.6062 15.5073L16.6206 16.0001ZM2.8014 15.0401H15.6206C15.3022 11.3457 12.5662 8.52006 9.211 8.52006C5.8558 8.52006 3.1198 11.3457 2.8014 15.0401Z" fill="#333333"/>
<path d="M16.6206 16.0001H1.7998L1.8126 15.5073C1.9342 11.0513 5.1822 7.56006 9.2094 7.56006C13.2366 7.56006 16.4862 11.0513 16.6062 15.5073L16.6206 16.0001ZM2.8014 15.0401H15.6206C15.3022 11.3457 12.5662 8.52006 9.211 8.52006C5.8558 8.52006 3.1198 11.3457 2.8014 15.0401Z" fill="black" fill-opacity="0.2"/>
</g>
<defs>
<clipPath id="clip0_491_7053">
<rect width="16" height="16" fill="white" transform="translate(0.799805)"/>
</clipPath>
</defs>
</svg>
