<svg width="16" height="16" viewBox="0 0 16 16" fill="none" xmlns="http://www.w3.org/2000/svg">
<g clip-path="url(#clip0_491_12364)">
<path d="M16.2941 15.1645L12.7693 11.6398C15.1714 8.88037 15.062 4.68169 12.4364 2.05609C9.69335 -0.685364 5.23359 -0.685364 2.49213 2.05609C-0.249329 4.79755 -0.249329 9.25732 2.49213 11.9988C3.86286 13.3695 5.66276 14.0549 7.46429 14.0549C9.11242 14.0549 10.7589 13.4788 12.0758 12.3317L15.6005 15.8564C15.6968 15.9527 15.8208 16 15.9465 16C16.0721 16 16.1978 15.9527 16.2924 15.8564C16.485 15.6655 16.485 15.3554 16.2941 15.1645ZM3.18402 11.3069C0.824409 8.94727 0.824409 5.1076 3.18402 2.74799C4.36383 1.56818 5.91406 0.979092 7.46429 0.979092C9.01451 0.979092 10.5647 1.56981 11.7446 2.74962C14.1042 5.10923 14.1042 8.9489 11.7446 11.3085C9.38331 13.6665 5.54363 13.6665 3.18402 11.3069Z" fill="#333333"/>
<path d="M16.2941 15.1645L12.7693 11.6398C15.1714 8.88037 15.062 4.68169 12.4364 2.05609C9.69335 -0.685364 5.23359 -0.685364 2.49213 2.05609C-0.249329 4.79755 -0.249329 9.25732 2.49213 11.9988C3.86286 13.3695 5.66276 14.0549 7.46429 14.0549C9.11242 14.0549 10.7589 13.4788 12.0758 12.3317L15.6005 15.8564C15.6968 15.9527 15.8208 16 15.9465 16C16.0721 16 16.1978 15.9527 16.2924 15.8564C16.485 15.6655 16.485 15.3554 16.2941 15.1645ZM3.18402 11.3069C0.824409 8.94727 0.824409 5.1076 3.18402 2.74799C4.36383 1.56818 5.91406 0.979092 7.46429 0.979092C9.01451 0.979092 10.5647 1.56981 11.7446 2.74962C14.1042 5.10923 14.1042 8.9489 11.7446 11.3085C9.38331 13.6665 5.54363 13.6665 3.18402 11.3069Z" fill="black" fill-opacity="0.2"/>
</g>
<defs>
<clipPath id="clip0_491_12364">
<rect width="16" height="16" fill="white"/>
</clipPath>
</defs>
</svg>
