<svg width="30" height="30" viewBox="0 0 30 30" fill="none" xmlns="http://www.w3.org/2000/svg">
<path d="M11.9044 18.4888L20.0035 14.2869L11.9044 10.0355V18.4888ZM15.0013 4.00088C16.8761 4.00088 18.6868 4.02618 20.4333 4.07677C22.1797 4.12736 23.4602 4.1806 24.2745 4.23648L25.4961 4.30707C25.5072 4.30707 25.601 4.3156 25.7773 4.33266C25.9241 4.34413 26.0559 4.36178 26.186 4.38649L26.1631 4.38296C26.2416 4.40002 26.3729 4.42531 26.5568 4.45884C26.737 4.48973 26.8978 4.53649 27.0498 4.59826L27.034 4.59297C27.1682 4.64885 27.3246 4.72179 27.5033 4.8118C27.701 4.91239 27.8715 5.02181 28.0297 5.14446L28.0227 5.13917C28.2011 5.27858 28.3593 5.42418 28.5051 5.58212L28.5078 5.58477C28.5974 5.67919 28.6827 5.78066 28.7609 5.88655L28.767 5.89537C28.9445 6.17597 29.108 6.50069 29.239 6.84041L29.2521 6.87924C29.463 7.37249 29.6186 7.94428 29.6924 8.54254L29.6959 8.57343C29.785 9.29051 29.8553 10.0553 29.9068 10.8676C29.9584 11.68 29.9892 12.3153 29.9991 12.7736V15.7314L30 15.9634C30 17.5985 29.8902 19.2089 29.6775 20.7857L29.6977 20.6022C29.628 21.1914 29.4808 21.7688 29.26 22.3193L29.2759 22.2743C29.1433 22.6468 28.96 22.999 28.731 23.3208L28.7398 23.3076L28.506 23.5899C28.3593 23.7488 28.2 23.8955 28.0297 24.0285L28.0209 24.0355C27.8653 24.1571 27.697 24.2616 27.5191 24.347L27.5024 24.3541C27.3237 24.4382 27.1673 24.5088 27.0331 24.5659C26.8839 24.6264 26.7286 24.6707 26.57 24.6982L26.5559 24.7C26.372 24.7335 26.2381 24.7588 26.1543 24.7759C26.0705 24.7929 25.9422 24.8097 25.7694 24.8262C25.5966 24.8426 25.5046 24.8512 25.4935 24.8518C22.6959 25.0706 19.1991 25.18 15.0031 25.18C12.693 25.1576 10.6869 25.1212 8.98497 25.0706C7.28301 25.02 6.16428 24.9779 5.62879 24.9444L4.80798 24.8738L4.20511 24.8032C3.87885 24.7637 3.55539 24.7036 3.23666 24.6232L3.29115 24.6347C2.98664 24.5404 2.69154 24.4178 2.4097 24.2685L2.43782 24.2817C2.08546 24.1092 1.76577 23.8763 1.4931 23.5935L1.49222 23.5926C1.40178 23.4973 1.31725 23.3965 1.23912 23.2908L1.23297 23.282C1.04561 22.983 0.887565 22.6665 0.761051 22.3369L0.747869 22.2981C0.524749 21.7669 0.376558 21.2071 0.307584 20.6348L0.304069 20.6039C0.215016 19.8868 0.144711 19.1221 0.0931541 18.3097C0.0415971 17.4973 0.0108387 16.862 0.000878812 16.4038V13.446L0 13.2139C0 11.5788 0.109852 9.96848 0.322524 8.39165L0.302311 8.57519C0.372008 7.98592 0.519172 7.40851 0.73996 6.85806L0.724141 6.90306C0.866509 6.50863 1.04754 6.16715 1.269 5.85655L1.26022 5.86978L1.49398 5.58742C1.6425 5.42682 1.80069 5.28123 1.9703 5.14887L1.97908 5.14181C2.13024 5.02357 2.29985 4.91504 2.48001 4.82239L2.49846 4.81356C2.67715 4.72415 2.83358 4.6512 2.96775 4.59473C3.11701 4.53423 3.27226 4.48986 3.43088 4.46237L3.44494 4.46061C3.62891 4.42708 3.76014 4.40178 3.83865 4.38472C3.94499 4.36354 4.07681 4.3459 4.21127 4.33531L4.22445 4.33443C4.40314 4.31737 4.49688 4.30884 4.50567 4.30884C7.30791 4.10295 10.8073 4 15.004 4L15.0013 4.00088Z" fill="white"/>
</svg>
