<svg width="19" height="16" viewBox="0 0 19 16" fill="none" xmlns="http://www.w3.org/2000/svg">
<g clip-path="url(#clip0_491_7063)">
<path d="M6.39981 10.3111H6.48869C6.49936 10.3111 6.50825 10.3093 6.51892 10.3076C6.53136 10.3076 6.54203 10.3111 6.55447 10.3111H15.7776C16.0158 10.3111 16.2256 10.1529 16.2896 9.92533L18.3785 2.63644C18.4247 2.47467 18.3927 2.30222 18.2914 2.16889C18.1918 2.03378 18.0336 1.95556 17.8665 1.95556H5.47892L5.16247 0.424889C5.11092 0.177778 4.89225 0 4.63981 0H1.33314C1.03803 0 0.799805 0.238222 0.799805 0.533333C0.799805 0.828444 1.03803 1.06667 1.33314 1.06667H4.20603L5.91447 9.31556C5.21936 9.52533 4.71092 10.1707 4.71092 10.9333C4.71092 11.7529 5.29936 12.4373 6.07447 12.5902C5.67447 12.9476 5.42203 13.4667 5.42203 14.0444C5.42203 15.1236 6.29847 16 7.37758 16C8.45669 16 9.33314 15.1236 9.33314 14.0444C9.33314 13.4844 9.09492 12.9796 8.71625 12.6222H12.7963C12.4158 12.9796 12.1776 13.4844 12.1776 14.0444C12.1776 15.1236 13.054 16 14.1331 16C15.2123 16 16.0887 15.1236 16.0887 14.0444C16.0887 13.4844 15.8505 12.9796 15.4718 12.6222H16.0887C16.3838 12.6222 16.622 12.384 16.622 12.0889C16.622 11.7938 16.3838 11.5556 16.0887 11.5556H6.39981C6.05669 11.5556 5.77758 11.2764 5.77758 10.9333C5.77758 10.5902 6.05669 10.3111 6.39981 10.3111ZM14.1331 14.9333C13.6425 14.9333 13.2443 14.5351 13.2443 14.0444C13.2443 13.5538 13.6425 13.1556 14.1331 13.1556C14.6238 13.1556 15.022 13.5538 15.022 14.0444C15.022 14.5351 14.6238 14.9333 14.1331 14.9333ZM7.37758 14.9333C6.88692 14.9333 6.48869 14.5351 6.48869 14.0444C6.48869 13.5538 6.88692 13.1556 7.37758 13.1556C7.86825 13.1556 8.26647 13.5538 8.26647 14.0444C8.26647 14.5351 7.86825 14.9333 7.37758 14.9333ZM17.1589 3.02222L15.3758 9.24444H6.98825L5.69936 3.02222H17.1589Z" fill="#333333"/>
<path d="M6.39981 10.3111H6.48869C6.49936 10.3111 6.50825 10.3093 6.51892 10.3076C6.53136 10.3076 6.54203 10.3111 6.55447 10.3111H15.7776C16.0158 10.3111 16.2256 10.1529 16.2896 9.92533L18.3785 2.63644C18.4247 2.47467 18.3927 2.30222 18.2914 2.16889C18.1918 2.03378 18.0336 1.95556 17.8665 1.95556H5.47892L5.16247 0.424889C5.11092 0.177778 4.89225 0 4.63981 0H1.33314C1.03803 0 0.799805 0.238222 0.799805 0.533333C0.799805 0.828444 1.03803 1.06667 1.33314 1.06667H4.20603L5.91447 9.31556C5.21936 9.52533 4.71092 10.1707 4.71092 10.9333C4.71092 11.7529 5.29936 12.4373 6.07447 12.5902C5.67447 12.9476 5.42203 13.4667 5.42203 14.0444C5.42203 15.1236 6.29847 16 7.37758 16C8.45669 16 9.33314 15.1236 9.33314 14.0444C9.33314 13.4844 9.09492 12.9796 8.71625 12.6222H12.7963C12.4158 12.9796 12.1776 13.4844 12.1776 14.0444C12.1776 15.1236 13.054 16 14.1331 16C15.2123 16 16.0887 15.1236 16.0887 14.0444C16.0887 13.4844 15.8505 12.9796 15.4718 12.6222H16.0887C16.3838 12.6222 16.622 12.384 16.622 12.0889C16.622 11.7938 16.3838 11.5556 16.0887 11.5556H6.39981C6.05669 11.5556 5.77758 11.2764 5.77758 10.9333C5.77758 10.5902 6.05669 10.3111 6.39981 10.3111ZM14.1331 14.9333C13.6425 14.9333 13.2443 14.5351 13.2443 14.0444C13.2443 13.5538 13.6425 13.1556 14.1331 13.1556C14.6238 13.1556 15.022 13.5538 15.022 14.0444C15.022 14.5351 14.6238 14.9333 14.1331 14.9333ZM7.37758 14.9333C6.88692 14.9333 6.48869 14.5351 6.48869 14.0444C6.48869 13.5538 6.88692 13.1556 7.37758 13.1556C7.86825 13.1556 8.26647 13.5538 8.26647 14.0444C8.26647 14.5351 7.86825 14.9333 7.37758 14.9333ZM17.1589 3.02222L15.3758 9.24444H6.98825L5.69936 3.02222H17.1589Z" fill="black" fill-opacity="0.2"/>
</g>
<defs>
<clipPath id="clip0_491_7063">
<rect width="17.6" height="16" fill="white" transform="translate(0.799805)"/>
</clipPath>
</defs>
</svg>
