<svg width="18" height="16" viewBox="0 0 18 16" fill="none" xmlns="http://www.w3.org/2000/svg">
<path d="M9.14323 8.28523C7.84627 8.28523 6.7915 7.23046 6.7915 5.93351C6.7915 4.63656 7.84627 3.58179 9.14323 3.58179C10.4402 3.58179 11.4949 4.63656 11.4949 5.93351C11.4949 7.23046 10.4386 8.28523 9.14323 8.28523ZM9.14323 4.53937C8.37366 4.53937 7.74749 5.16554 7.74749 5.9351C7.74749 6.70467 8.37366 7.32925 9.14323 7.32925C9.91279 7.32925 10.539 6.70308 10.539 5.93351C10.539 5.16394 9.9112 4.53937 9.14323 4.53937Z" fill="#333333"/>
<path d="M9.14323 8.28523C7.84627 8.28523 6.7915 7.23046 6.7915 5.93351C6.7915 4.63656 7.84627 3.58179 9.14323 3.58179C10.4402 3.58179 11.4949 4.63656 11.4949 5.93351C11.4949 7.23046 10.4386 8.28523 9.14323 8.28523ZM9.14323 4.53937C8.37366 4.53937 7.74749 5.16554 7.74749 5.9351C7.74749 6.70467 8.37366 7.32925 9.14323 7.32925C9.91279 7.32925 10.539 6.70308 10.539 5.93351C10.539 5.16394 9.9112 4.53937 9.14323 4.53937Z" fill="black" fill-opacity="0.2"/>
<path d="M9.2293 16L4.51152 9.03246C4.44938 8.94643 4.38246 8.84764 4.31873 8.74726L4.2534 8.64051C3.71805 7.74826 3.43604 6.73491 3.43604 5.70564C3.43604 2.56045 5.99648 0 9.14167 0C12.2885 0 14.8489 2.56045 14.8489 5.70564C14.8489 6.73491 14.5669 7.74826 14.0315 8.63732L13.9073 8.83808C13.885 8.87313 13.8626 8.90659 13.8387 8.94165L9.2293 16ZM9.14167 0.955985C6.52387 0.955985 4.39202 3.08783 4.39202 5.70564C4.39202 6.56124 4.62783 7.4041 5.07236 8.14499L5.13291 8.24378C5.1823 8.32185 5.23807 8.40311 5.29543 8.48277L9.21656 14.2713L13.0485 8.40629C13.0724 8.37124 13.0883 8.34575 13.1042 8.32026L13.2142 8.1418C13.6587 7.40092 13.8945 6.55806 13.8945 5.70245C13.8929 3.08783 11.7627 0.955985 9.14167 0.955985Z" fill="#333333"/>
<path d="M9.2293 16L4.51152 9.03246C4.44938 8.94643 4.38246 8.84764 4.31873 8.74726L4.2534 8.64051C3.71805 7.74826 3.43604 6.73491 3.43604 5.70564C3.43604 2.56045 5.99648 0 9.14167 0C12.2885 0 14.8489 2.56045 14.8489 5.70564C14.8489 6.73491 14.5669 7.74826 14.0315 8.63732L13.9073 8.83808C13.885 8.87313 13.8626 8.90659 13.8387 8.94165L9.2293 16ZM9.14167 0.955985C6.52387 0.955985 4.39202 3.08783 4.39202 5.70564C4.39202 6.56124 4.62783 7.4041 5.07236 8.14499L5.13291 8.24378C5.1823 8.32185 5.23807 8.40311 5.29543 8.48277L9.21656 14.2713L13.0485 8.40629C13.0724 8.37124 13.0883 8.34575 13.1042 8.32026L13.2142 8.1418C13.6587 7.40092 13.8945 6.55806 13.8945 5.70245C13.8929 3.08783 11.7627 0.955985 9.14167 0.955985Z" fill="black" fill-opacity="0.2"/>
</svg>
