<?xml version="1.0" encoding="utf-8"?>
<!-- Generator: Adobe Illustrator 24.1.2, SVG Export Plug-In . SVG Version: 6.00 Build 0)  -->
<svg version="1.1" id="圖層_1" xmlns="http://www.w3.org/2000/svg" xmlns:xlink="http://www.w3.org/1999/xlink" x="0px" y="0px"
	 viewBox="0 0 443.6 110.4" style="enable-background:new 0 0 443.6 110.4;" xml:space="preserve">
<style type="text/css">
	.st0{fill:#141D41;}
	.st1{fill:#E95527;}
</style>
<g>
	<g>
		<g>
			<g>
				<g>
					<path class="st0" d="M203.2,10.1h19.2l-12.2,63.4h28l0,0c-1.6,8.1-8.7,14.1-16.9,14h-33L203.2,10.1z"/>
				</g>
			</g>
		</g>
	</g>
	<g>
		<g>
			<g>
				<g>
					<path class="st0" d="M259.3,10.2h19.2l-12.2,63.4h28l0,0c-1.6,8.1-8.7,14.1-16.9,14h-33L259.3,10.2z"/>
				</g>
			</g>
		</g>
	</g>
	<g>
		<g>
			<g>
				<g>
					<path class="st0" d="M443.6,20.9l-16.1,9.6c-4-5.3-8.5-8-13.7-8c-2.5,0-4.7,0.5-6.5,1.5s-2.8,2.2-3.1,3.5
						c-0.3,1.3,0.1,2.5,1,3.7c1.3,1.5,5.3,4.9,12.2,10c6.4,4.7,10.3,7.7,11.6,8.9c3.3,3,5.5,5.9,6.6,8.7s1.3,5.8,0.7,9
						c-1.2,6.4-5.1,11.6-11.6,15.7s-14.4,6.2-23.6,6.2c-7.2,0-13.2-1.4-18-4.1s-8.6-7-11.3-12.8l17.6-7.5
						c3.5,6.9,8.5,10.3,14.8,10.3c3.3,0,6.2-0.7,8.7-2.2s4-3.2,4.4-5.1c0.3-1.8-0.2-3.5-1.5-5.3c-1.4-1.8-4.6-4.4-9.7-8.1
						c-9.7-6.9-15.8-12.2-18.2-16s-3.4-7.5-2.7-11.2c1-5.2,4.3-9.6,9.9-13.3c5.4-3.6,12.1-5.8,19.2-6.2c6-0.3,11.4,0.6,16.2,2.6
						C434.9,12.9,439.2,16.2,443.6,20.9z"/>
				</g>
			</g>
		</g>
	</g>
	<g>
		<g>
			<g>
				<g>
					<path class="st0" d="M141.6,87.7c-22.6,0-37.7-17.5-33.6-38.9S133.9,9.9,156.6,10s37.7,17.5,33.6,38.9
						C186,70.3,164.2,87.8,141.6,87.7z M153.8,24.4c-12.1,0-24.4,11.2-27,24.4c-2.6,13.3,5.5,24.5,17.6,24.5s24.4-11.2,27-24.4
						C173.9,35.6,165.8,24.4,153.8,24.4z"/>
				</g>
			</g>
		</g>
	</g>
	<g>
		<g>
			<g>
				<g>
					<path class="st0" d="M330.4,87.9c-22.6,0-37.7-17.4-33.6-38.9s25.9-38.9,48.6-38.8c22.6,0,37.7,17.5,33.6,38.9
						C374.8,70.5,353.1,88,330.4,87.9z M342.6,24.6c-12.1,0-24.4,11.2-27,24.4c-2.6,13.3,5.5,24.5,17.6,24.5s24.4-11.2,27-24.4
						C362.7,35.8,354.7,24.6,342.6,24.6z"/>
				</g>
			</g>
		</g>
	</g>
	<g>
		<g>
			<g>
				<path class="st0" d="M21.3,3.3L0,107c-0.4,2,2,3.4,3.5,2.1L51,67.7c0.4-0.4,0.5-1,0.2-1.5l-8.9-12.4c-0.4-0.5-1.1-0.6-1.6-0.2
					L26.2,66.2L38.4,3.7C38.5,3,38,2.4,37.3,2.4H22.4C21.8,2.4,21.4,2.7,21.3,3.3z"/>
			</g>
		</g>
		<g>
			<g>
				<path class="st1" d="M50.9,3.3l-7.1,31.3c-0.2,1,1,1.8,1.8,1L79.2,4.3c0.7-0.7,0.2-1.9-0.7-1.9L51.9,2.5
					C51.4,2.5,51,2.8,50.9,3.3z"/>
			</g>
		</g>
		<g>
			<g>
				<path class="st0" d="M98.9,2.9L53.1,42.8c-0.9,0.8-1,2.2-0.3,3.1l52.1,63c1.2,1.4,3.4,0.9,3.9-0.8l4.5-15.6
					c0.2-0.7,0-1.5-0.4-2.1l-35-42.3c-0.8-0.9-0.7-2.3,0.2-3.1L121,6.4c1.5-1.4,0.6-3.9-1.5-3.9h-19.1C99.8,2.3,99.3,2.5,98.9,2.9z"
					/>
			</g>
		</g>
	</g>
</g>
</svg>
